<?xml version="1.0" encoding="utf-8"?>
<!-- Generator: Adobe Illustrator 22.1.0, SVG Export Plug-In . SVG Version: 6.00 Build 0)  -->
<svg version="1.1" id="Layer_1" xmlns="http://www.w3.org/2000/svg" xmlns:xlink="http://www.w3.org/1999/xlink" x="0px" y="0px"
	 viewBox="0 0 189.7 110.5" style="enable-background:new 0 0 189.7 110.5;" xml:space="preserve">
<style type="text/css">
	.st0{fill:#FFFFFF;}
</style>
<path class="st0" d="M41.5,25.8c1.8,0,3.6,0.1,5.4,0.4c1.8,0.2,3.6,0.8,5.2,1.8c1.7,1,2.8,2.8,2.7,4.8c0,1.1-0.4,2.1-1.2,2.9
	c-0.5,0.6-1.1,1-1.8,1.3c-1.1,0.4-2.4,0.4-3.5,0.1h-0.1c-1-0.4-1-0.7-0.4-1.5c0.8-0.8,1.2-1.9,1.1-3c0-1.2-0.6-2.3-1.6-2.9
	c-1.3-0.9-2.8-1.4-4.4-1.5c-1.7-0.2-3.5-0.2-5.3,0c-2.3,0.2-4.5,0.8-6.5,1.7c-1.2,0.5-2.3,1.4-3.1,2.5c-1.6,2.2-1.3,5.2,0.7,7
	c1.1,1.1,2.4,2,3.8,2.7c1.3,0.7,2.7,1.4,4,2c2.5,1.1,5.1,2.2,7.6,3.3c1.8,0.8,3.6,1.6,5.4,2.5s3.4,1.7,5,2.7
	c2.3,1.3,4.5,2.9,6.4,4.8c2.1,2,3.7,4.4,4.9,7c0.7,1.7,1.2,3.4,1.5,5.2c0.4,2.4,0.6,4.8,0.5,7.1c-0.1,2-0.4,4-1,5.9
	c-0.7,2.2-1.8,4.2-3.1,6c-0.9,1.2-1.9,2.4-3,3.4c-1.6,1.5-3.3,2.8-5.1,3.9c-1.8,1.1-3.6,2-5.6,2.6c-1.9,0.7-3.8,1.2-5.8,1.5
	c-2.2,0.3-4.5,0.5-6.7,0.4c-1.4-0.1-2.8-0.1-4.1-0.2c-0.8-0.1-1.6-0.2-2.4-0.4c-1-0.2-2.1-0.5-3.1-0.8c-2.2-0.6-4.3-1.6-6.2-2.7
	c-2.3-1.3-4.3-3.1-5.9-5.1c-1.4-1.8-2.5-3.9-3-6.1c-0.3-1.4-0.6-2.8-0.6-4.2c-0.1-2.3,0.3-4.5,1.1-6.6c0.9-2.1,2.3-4,4-5.6
	c1.9-1.8,4.1-3.2,6.5-4.1c2.5-0.9,5.1-1.4,7.8-1.3c0.9,0,1.9,0,2.8,0.1c2.9,0.1,5.7,0.8,8.3,2c1.9,0.9,3.6,2.2,4.9,3.9
	c1,1.4,1.6,3,1.8,4.6c0.2,1.4,0.1,2.9-0.3,4.3c-0.5,1.5-1.3,2.8-2.5,3.9c-2.4,2.3-5.7,3.6-9,3.5c-1.9,0.1-3.9-0.2-5.7-0.9
	c-1.5-0.5-2.9-1.4-3.9-2.6c-1.3-1.5-1.6-3.6-0.8-5.5c0.3-0.6,0.7-1.2,1.3-1.6c0.6-0.5,1.2-0.9,1.9-1.2c0.5-0.1,1.1-0.2,1.6-0.3
	c0.5,0,0.6,0.1,0.5,0.6c-0.2,0.8-0.4,1.6-0.6,2.5c-0.2,1.4,0.5,2.9,1.8,3.6c1.3,0.8,2.8,1.2,4.3,1c2.2-0.2,4.3-1.4,5.5-3.3
	c0.5-0.8,0.8-1.8,0.9-2.8c0.2-2-0.6-4-2-5.5c-0.8-0.8-1.6-1.4-2.6-1.9c-1.4-0.7-2.9-1.2-4.4-1.5c-1.4-0.3-2.8-0.4-4.2-0.4
	c-1.3,0-2.5,0.1-3.8,0.3c-3.6,0.6-7,2.5-9.5,5.2c-1.5,1.5-2.5,3.4-3,5.5c-0.4,1.9-0.4,3.9-0.1,5.8c0.5,2.6,1.8,5.1,3.7,7
	c1.2,1.2,2.5,2.2,3.9,3c1.6,1,3.4,1.8,5.2,2.4c1.7,0.6,3.4,1,5.2,1.2c2.5,0.4,5.1,0.5,7.7,0.3c2.5-0.1,5-0.7,7.3-1.5
	c1.5-0.6,2.9-1.3,4.2-2.1c2.1-1.3,3.9-2.9,5.5-4.7c2.5-2.8,4.1-6.2,4.5-9.9c0.2-1.8,0.2-3.6,0-5.4c-0.3-2.2-1.1-4.2-2.3-6.1
	c-0.9-1.4-2-2.6-3.3-3.7c-1.9-1.6-4-3.1-6.1-4.3c-2.5-1.4-5-2.7-7.5-3.9c-2.7-1.2-5.4-2.5-8.1-3.8c-1.8-0.8-3.6-1.6-5.3-2.5
	c-2.4-1.2-4.5-2.8-6.1-4.9c-1.2-1.5-1.9-3.3-2-5.2c-0.2-2.4,0.6-4.7,2.1-6.5c1-1.2,2.2-2.2,3.6-3c2.4-1.4,5-2.3,7.7-2.7
	C37,25.9,39.2,25.8,41.5,25.8z"/>
<path class="st0" d="M110.9,19c0,4.9-2.2,9.5-6,12.6c-1.8,1.5-4,2.5-6.2,3.1c-5.3,1.3-10.9-0.1-15-3.7c-1.4-1.2-2.5-2.7-3.4-4.3
	c-0.7-1.3-1.3-2.8-1.5-4.3c-0.4-1.9-0.4-3.8-0.1-5.7c0.2-1.2,0.5-2.5,1-3.6c0.7-1.9,1.8-3.5,3.2-5c2.4-2.6,5.5-4.3,9-5
	c2-0.4,4.1-0.4,6.2,0c2.2,0.4,4.3,1.3,6.1,2.6c1.4,1,2.7,2.2,3.7,3.6c1.7,2.3,2.8,5,3.1,7.9C110.9,17.8,110.9,18.4,110.9,19z
	 M108.5,19.8c0-4.2-1-7.1-3.1-9.6c-2.2-2.8-5.5-4.6-9.1-4.9C93,5,89.8,5.7,87,7.5c-1,0.7-1.9,1.5-2.7,2.4c-1.1,1.2-2,2.6-2.6,4.1
	c-0.8,1.9-1.1,4-0.9,6c0.2,2.1,0.8,4.1,1.8,5.8c0.8,1.4,1.8,2.6,3.1,3.6c0.8,0.6,1.6,1.2,2.5,1.6c1,0.5,2.1,0.9,3.2,1.1
	c1.7,0.4,3.4,0.5,5.2,0.3c2.9-0.4,5.5-1.7,7.6-3.7C106.8,26.5,108.3,23.3,108.5,19.8L108.5,19.8z"/>
<path class="st0" d="M155.4,53.4v0.8c-1.2,0-2.3,0-3.4,0s-2.3,0.1-3.4,0.1v-0.8c0.2,0,0.5-0.1,0.7-0.1s0.4,0,0.5,0
	c0.6-0.1,0.9-0.3,0.9-1c0-1.1,0-2.2,0-3.4v-5.3c0-0.7-0.3-1.3-0.9-1.6l-0.6-0.3c-0.2-0.1-0.2-0.4-0.1-0.6c0-0.1,0.1-0.1,0.2-0.2
	l0.2-0.1l3.2-1.1c0.5-0.2,0.6-0.1,0.6,0.4c0,0.4,0,0.7,0,1.1c0,0.2,0,0.3,0,0.6l0.7-0.4c0.9-0.7,2-1.2,3.1-1.6
	c0.9-0.3,1.9-0.3,2.9-0.1c0.8,0.2,1.5,0.8,1.9,1.6c0.1,0.2,0.2,0.3,0.3,0.5c0.4-0.2,0.7-0.5,1.1-0.7c0.9-0.7,1.9-1.2,3-1.5
	c0.9-0.3,1.8-0.2,2.7,0c1.2,0.4,2.1,1.6,2.2,2.9c0.1,1,0.2,2.1,0.2,3.1c0,2,0,4,0,5.9c0,0.1,0,0.2,0,0.3c0.1,0.7,0.2,0.9,1,1
	c0.3,0,0.6,0,1,0.1V54h-6.6v-0.7c0.3,0,0.6,0,1-0.1c0.9-0.1,1-0.2,1.1-1.1s0-2,0-2.9c0-1.4,0-2.8,0-4.2c0-0.7-0.1-1.5-0.4-2.2
	c-0.5-1-1.6-1.5-2.6-1.3c-1.1,0.2-2.1,0.7-3.1,1.3c-0.2,0.1-0.3,0.4-0.3,0.7c0,1.6,0,3.2,0,4.8c0,1.3,0,2.6,0,3.9c0,0.8,0.2,1,1,1.1
	l1.1,0.1v0.8h-2.3h-2.2c-0.8,0.1-1.5,0.1-2.3,0v-0.8c0.3,0,0.7-0.1,1-0.1c0.8,0,1.1-0.3,1.1-1.1c0-2,0-4,0-5.9c0-0.6,0-1.2,0-1.8
	c0-0.8-0.3-1.6-0.9-2.2c-0.7-0.6-1.6-0.8-2.5-0.6c-1,0.2-1.9,0.7-2.8,1.3c-0.2,0.2-0.3,0.4-0.3,0.7c0,1.1,0,2.2,0,3.3
	c0,1.6,0,3.3,0,4.9c0,0.3,0,0.6,0.1,0.9c0,0.3,0.3,0.6,0.6,0.6C154.4,53.4,154.8,53.4,155.4,53.4z"/>
<path class="st0" d="M102.8,80c-0.5-0.2-0.8-0.4-1.2-0.6c-0.9-0.5-1.4-1.4-1.4-2.4c0-0.5,0.2-0.9,0.6-1.1c0.5-0.3,1-0.5,1.5-0.8
	c0.2-0.1,0.3-0.2,0.5-0.4c-0.4-0.3-0.7-0.4-1-0.7c-0.4-0.4-0.9-0.8-1.2-1.2c-0.6-0.8-0.8-1.9-0.6-2.9c0.1-1.5,1.1-2.9,2.5-3.5
	c1.6-0.8,3.4-1,5.2-0.6c0.8,0.2,1.7,0.4,2.5,0.6c0.9,0.2,1.8,0.2,2.7,0.1h0.7c0.1,0.4,0.2,0.8,0.1,1.3c0,0.2-0.2,0.2-0.4,0.2H111
	h-0.3c0.1,0.2,0.2,0.5,0.3,0.7c0.8,2,0,4.3-1.8,5.5c-1.4,0.9-3,1.2-4.6,0.9c-0.5-0.1-1-0.1-1.3,0.4c-0.4,0.4-0.5,1-0.3,1.6
	c0.2,0.4,0.5,0.7,1,0.8c0.4,0.1,0.8,0.1,1.2,0.1c1.3,0,2.6,0,3.9,0c0.9,0,1.7,0.1,2.6,0.3c1.5,0.3,2.5,1.7,2.2,3.2
	c0,0.1-0.1,0.3-0.1,0.4c-0.4,1.5-1.2,2.8-2.5,3.6c-1.5,1.1-3.4,1.7-5.3,1.7c-1.3,0.1-2.6-0.1-3.8-0.4c-0.9-0.2-1.8-0.8-2.3-1.6
	c-0.7-0.9-0.7-2.2,0-3.1c0.5-0.8,1.2-1.3,2.1-1.6L102.8,80z M101.7,83c0,1.4,0.9,2.5,2.2,2.8c1.9,0.6,3.9,0.3,5.7-0.6
	c0.7-0.3,1.2-0.9,1.5-1.6c0.4-0.8,0.3-1.8-0.3-2.5c-0.4-0.4-1-0.7-1.6-0.9c-1.8-0.4-3.6-0.4-5.3,0C102.6,80.5,101.7,81.6,101.7,83
	L101.7,83z M102.8,69.8c0,1,0.2,2,0.6,2.9c0.3,0.7,1,1.3,1.8,1.5c1.4,0.3,2.8-0.5,3.3-1.8c0.3-0.9,0.4-1.8,0.2-2.7
	c-0.1-0.9-0.6-1.8-1.2-2.4c-1.1-1-2.8-0.8-3.8,0.3C103.2,68.2,102.9,69,102.8,69.8L102.8,69.8z"/>
<path class="st0" d="M126.9,42.6c0.3-0.2,0.4-0.4,0.6-0.5c0.8-0.8,1.7-1.4,2.7-1.8c1.5-0.6,3.2-0.3,4.4,0.7c0.6,0.5,1,1.2,1.1,2
	c0.2,1,0.3,2,0.2,3c0,2.1,0,4.1,0,6.2c0,0.1,0,0.2,0,0.4c0.1,0.7,0.3,0.9,1,0.9l1.1,0.1v0.7c-0.3,0.2-0.6,0.1-0.9,0.1c-1,0-2,0-3,0
	c-0.8,0-1.6,0.1-2.5,0.1c-0.1,0-0.2,0-0.4,0v-0.8c0.3,0,0.6,0,1-0.1c0.6-0.1,0.9-0.3,1-0.9c0.1-0.5,0.1-0.9,0.1-1.4
	c0-2.1,0-4.1-0.1-6.2c0-0.4-0.1-0.9-0.3-1.3c-0.4-1.3-1.8-2.1-3.1-1.8c-1.1,0.2-2.2,0.8-2.9,1.6c-0.1,0.2-0.2,0.4-0.2,0.6
	c0,1.3,0,2.7,0,4s0,2.6,0,4c0,1.1,0.3,1.4,1.4,1.4h0.8v0.8l-6.8,0.1v-0.8l0.9,0c0.8-0.1,1.1-0.3,1.1-1.1c0-1.4,0-2.8,0-4.2
	c0-1.8,0-3.5,0-5.3s0-3.6,0-5.5c0-1,0-2,0-2.9c0-0.3,0-0.6-0.1-0.9c-0.1-0.4-0.4-0.7-0.8-0.8c-0.2,0-0.3-0.1-0.5-0.1
	c-0.1-0.1-0.3-0.2-0.3-0.3c0-0.2,0.1-0.3,0.2-0.4c0.4-0.2,0.8-0.3,1.2-0.5l2.1-1c0.1,0,0.2-0.1,0.3-0.1c0.3-0.1,0.5,0,0.5,0.3
	c0,0.6,0,1.2,0,1.8c0,1.8,0,3.5,0,5.3c0,1.3,0,2.6,0,4C126.8,42.1,126.9,42.3,126.9,42.6z"/>
<path class="st0" d="M112.2,61.8h-7.9v-0.8c0.5,0,1,0,1.4-0.1c0.7-0.1,1-0.4,1-1.1c0-3.2,0-6.4,0-9.6c0-1.6,0-3.2,0-4.8
	c0-0.4,0-0.9-0.1-1.3c-0.1-0.6-0.5-1.2-1.1-1.4c-0.2-0.1-0.3-0.1-0.5-0.2c-0.3-0.2-0.3-0.5,0-0.7l0.2-0.2l3.3-1.5
	c0.2-0.1,0.4-0.1,0.6-0.1c0.2,0.8,0,1.5,0.2,2.3c0.5-0.4,0.9-0.7,1.3-1c1-0.7,2.2-1.1,3.4-1.2c1.3,0,2.6,0.5,3.6,1.4
	c1.4,1.3,2.2,3,2.2,4.9c0.2,2.7-1,5.3-3.1,6.9c-1.8,1.6-4.3,2.1-6.6,1.5l-0.8-0.2c-0.2,0.4-0.2,0.8-0.1,1.2c0,1.2,0,2.5,0,3.7
	c0,0.2,0,0.3,0,0.5c0,0.4,0.2,0.7,0.6,0.7c0.3,0.1,0.6,0.1,0.9,0.1c0.3,0,0.6,0,1,0c0.5,0,0.6,0.1,0.5,0.6
	C112.3,61.6,112.2,61.7,112.2,61.8z M109.4,47.7L109.4,47.7c0,1.2,0,2.4,0,3.6c0,0.3,0.1,0.5,0.2,0.8c1,1.8,3.2,2.4,5,1.4
	c0.1,0,0.1-0.1,0.2-0.1c1-0.6,1.8-1.6,2.1-2.7c0.8-2,0.6-4.2-0.5-6c-1.3-2.2-4.2-3-6.4-1.7c-0.1,0-0.2,0.1-0.3,0.2
	c-0.3,0.2-0.5,0.5-0.4,0.8C109.4,45.2,109.4,46.4,109.4,47.7L109.4,47.7z"/>
<path class="st0" d="M97.8,79.3V80c-0.1,0-0.1,0.1-0.2,0.1c-0.2,0-0.3,0-0.5,0h-6l0-0.8c0.4,0,0.8,0,1.2-0.1c0.6-0.1,0.9-0.3,0.9-1
	c0-2,0-3.9,0-5.9v-1.8c0-0.3,0-0.6,0-0.8c-0.1-1.3-1.1-2.3-2.4-2.2c-0.4,0-0.9,0-1.3,0.1c-0.9,0.3-1.7,0.7-2.5,1.3
	c-0.3,0.1-0.4,0.4-0.4,0.7v3.2c0,1.7,0,3.4,0,5.1c0,1.1,0.2,1.3,1.4,1.3h0.6c0,0,0.1,0,0.1,0.1c0,0.1,0,0.2,0,0.3c0,0.1,0,0.3,0,0.4
	h-0.8h-4.6c-0.3,0-0.6,0.1-0.8,0.1c-0.5,0-0.6,0-0.6-0.6c0-0.1,0-0.2,0-0.2l0.6-0.1c0.2,0,0.5,0,0.7,0c0.4,0,0.7-0.3,0.7-0.7
	c0-0.3,0.1-0.6,0-0.9c0-1.3,0-2.6-0.1-3.9s0-2.6,0-4c0-0.7-0.4-1.2-1-1.5c-0.2-0.1-0.3-0.1-0.5-0.2c-0.2-0.1-0.4-0.4-0.3-0.6
	c0-0.1,0.2-0.2,0.3-0.3l2.6-1c0.4-0.1,0.8-0.3,1.3-0.5c0.1,0.7,0.2,1.4,0.2,2.2l0.8-0.4c0.8-0.4,1.6-0.9,2.4-1.3
	c1.1-0.5,2.4-0.6,3.6-0.2c0.8,0.2,1.4,0.8,1.8,1.5c0.3,0.7,0.5,1.5,0.5,2.2c0,2.6,0,5.1,0,7.7c0,0.3,0,0.6,0,0.9
	c0,0.5,0.4,0.8,0.8,0.8c0,0,0,0,0,0c0.2,0,0.4,0,0.6,0L97.8,79.3z"/>
<path class="st0" d="M102.2,53c0.2,0.2,0.4,0.4,0.1,0.6c-0.7,0.8-1.6,1.4-2.6,1.6c-1,0.2-2-0.4-2.2-1.4c0,0,0,0,0,0l-0.2-0.7
	c-0.3,0.2-0.6,0.4-0.9,0.6c-1.1,0.9-2.5,1.5-3.9,1.5c-1.5,0.1-2.9-0.8-3.4-2.2c-0.3-1.1,0-2.3,0.9-3.1c0.5-0.4,1.1-0.7,1.7-1
	c1.2-0.5,2.5-1,3.7-1.4L97,47c0.3-0.1,0.4-0.3,0.4-0.6c0-0.7,0-1.4-0.1-2.1c0-0.9-0.7-1.7-1.6-1.9c-0.6-0.2-1.3-0.3-2-0.1
	c-0.9,0.1-1.7,0.9-1.7,1.9c0,0.9-0.7,1.6-1.6,1.6c-0.6,0.1-0.9-0.2-0.8-0.8c0.1-0.9,0.5-1.6,1.3-2.1c0.5-0.4,1.1-0.7,1.7-1
	s1.1-0.6,1.6-0.9c1.6-0.9,3.6-0.7,5,0.5c0.6,0.4,0.9,1,0.9,1.6c0,2.1,0,4.1,0,6.2c0,1,0,2,0,2.9c0,0.1,0,0.2,0.1,0.4
	c0,0.6,0.5,1,1,1c0.2,0,0.4-0.1,0.5-0.1C101.9,53.3,102.1,53.2,102.2,53z M97.3,48c-0.1,0-0.2,0-0.3,0c-1,0.4-2.1,0.7-3.1,1.1
	c-0.7,0.3-1.3,0.7-1.8,1.3c-0.4,0.5-0.5,1.2-0.3,1.9c0.4,1,1.4,1.6,2.5,1.5c1.1-0.2,2.1-0.8,2.9-1.7c0.1-0.2,0.2-0.4,0.2-0.5
	c0-1,0-2,0-3C97.4,48.3,97.4,48.2,97.3,48L97.3,48z"/>
<path class="st0" d="M65,46.4C65,46.7,65,46.9,65,47.1c0,1,0.2,2.1,0.5,3.1c0.4,1.2,1.2,2.2,2.2,2.8c1.2,0.7,2.6,0.7,3.9,0.1
	c0.7-0.3,1.4-0.8,2-1.4l0.4-0.3l0.5,0.4c-0.5,0.8-1.2,1.6-2,2.2c-1.7,1.5-4.1,1.9-6.2,1c-1.5-0.6-2.7-1.9-3.1-3.4
	c-0.9-2.4-0.7-5.1,0.4-7.4c0.8-1.8,2.4-3.1,4.3-3.5c2-0.5,4,0.1,5.4,1.6c0.6,0.6,0.9,1.4,1,2.2c0.1,0.4,0.1,0.7,0.1,1.1
	c0,0.6-0.1,0.7-0.7,0.7c-0.9,0-1.8,0-2.7,0l-5.1,0.1C65.5,46.4,65.3,46.4,65,46.4z M65.1,45.2c0.2,0,0.4,0,0.6,0h3c0.7,0,1.4,0,2,0
	c0.4,0,0.7-0.2,0.7-0.5c0.1-0.7-0.1-1.4-0.5-2c-0.8-1-2.1-1.3-3.2-0.9C66.1,42.4,65.5,43.6,65.1,45.2z"/>
<path class="st0" d="M118.2,71.3c0,0.4-0.1,0.8-0.1,1.1c0,1.5,0.4,2.9,1.3,4.2c0.7,1.1,2,1.8,3.3,1.8c1.1,0,2.1-0.3,3-1l1.5-1.2
	l0.4,0.5c-0.3,0.4-0.6,0.8-0.9,1.1c-1,1.1-2.3,1.9-3.7,2.3c-1.7,0.4-3.4,0.1-4.8-0.9c-1-0.7-1.7-1.8-2-3c-0.6-1.8-0.7-3.7-0.2-5.5
	c0.3-1.5,1.2-2.9,2.4-3.9c2-1.7,4.9-1.9,7.1-0.5c1.3,0.9,2.1,2.4,2,4c0,0.5-0.2,0.7-0.7,0.7l-6.3,0L118.2,71.3z M118.4,70.2h0.4h4.4
	c0.3,0,0.6,0,0.8-0.1c0.4-0.1,0.5-0.2,0.5-0.6c0.2-1.4-0.8-2.7-2.2-2.9c-0.1,0-0.3,0-0.4,0c-2.1,0-3.2,1.6-3.6,3.3
	C118.4,70,118.4,70.1,118.4,70.2z"/>
<path class="st0" d="M142.8,75.4c0.1,0.4,0.2,0.7,0.4,1.1c0.6,1.8,2.5,2.9,4.4,2.5c1.2-0.2,2-1.4,1.7-2.6c-0.1-0.3-0.2-0.7-0.4-0.9
	c-0.3-0.4-0.8-0.8-1.3-1c-0.7-0.3-1.5-0.6-2.2-1c-0.8-0.4-1.6-0.9-2.2-1.6c-1.3-1.7-1-4,0.6-5.4c1-0.8,2.2-1.2,3.5-1.1
	c1.1,0,2.3,0.3,3.3,0.7c0.2,0.1,0.4,0.2,0.4,0.5c0,0.9,0.1,1.9,0.2,2.9h-0.8c-0.1-0.3-0.1-0.5-0.2-0.8c-0.3-1.2-1.4-2.1-2.7-2.2
	c-0.6-0.1-1.2,0-1.7,0.2c-1,0.4-1.5,1.6-1.1,2.6c0.1,0.2,0.2,0.4,0.3,0.5c0.5,0.5,1.1,1,1.8,1.2c0.7,0.3,1.4,0.6,2,0.9
	c0.8,0.3,1.5,0.8,2.1,1.4c0.8,0.9,1.1,2.2,0.8,3.3c-0.2,1.1-0.9,2.1-1.9,2.7c-1.3,0.7-2.7,1-4.1,0.8c-0.9-0.1-1.8-0.3-2.6-0.7
	c-0.4-0.1-0.6-0.4-0.6-0.8c0-0.9-0.2-1.8-0.2-2.7C142.2,75.4,142.2,75.4,142.8,75.4z"/>
<path class="st0" d="M84.4,54v0.8c-1.4,0.1-2.8,0-4.1,0s-2.7,0.1-4.1,0.1c0-0.1,0-0.3,0-0.4c0-0.1,0-0.3,0-0.4l1.3-0.1
	c0.8-0.1,1-0.3,1-1c0-1.4,0-2.7,0-4.1s0-2.8,0-4.2c0.1-0.7-0.3-1.3-1-1.5c-0.1,0-0.2-0.1-0.3-0.1c-0.1-0.1-0.2-0.2-0.3-0.4
	c0-0.2,0.1-0.4,0.3-0.5l2-0.9c0.4-0.2,0.8-0.4,1.2-0.6c0.6-0.3,0.7-0.2,0.8,0.5s0,1.1,0,1.7c0,0.2,0,0.4,0,0.6h0.1l0.3-0.4
	c0.5-0.8,1.1-1.4,1.9-1.9c0.4-0.2,0.8-0.4,1.3-0.6c0.8-0.2,1.7,0.1,2.1,0.9c0.5,0.7,0.2,1.7-0.5,2.1c-0.3,0.2-0.8,0.3-1.2,0.2
	c-0.2,0-0.5-0.1-0.6-0.3c-0.7-0.6-1.8-0.5-2.4,0.2c-0.7,0.6-1.1,1.4-1,2.3v5.2c0,0.5,0,1,0,1.5c0,0.2,0,0.4,0,0.5
	c0.1,0.5,0.3,0.7,0.9,0.8s1.2,0,1.7,0L84.4,54z"/>
<path class="st0" d="M137.6,79v0.8c-0.3,0-0.5,0.1-0.7,0.1h-6.6h-0.9V79l1.2-0.1c0.8-0.1,1.1-0.3,1.1-1.1s0-1.9,0-2.8
	c0-1.5,0-2.9,0-4.4c0-0.4,0-0.8,0-1.2c0.1-0.6-0.3-1.1-0.8-1.3c-0.2-0.1-0.4-0.1-0.5-0.2c-0.4-0.2-0.4-0.5,0-0.7s1-0.5,1.5-0.8
	s0.9-0.5,1.3-0.7c0.2-0.1,0.3-0.1,0.5-0.2c0.4-0.1,0.5,0,0.6,0.4c0,0.3,0,0.5,0,0.8c0,0.5,0,1,0,1.5l0.1,0c0.1-0.1,0.2-0.2,0.3-0.4
	c0.5-0.8,1.3-1.6,2.1-2.1c0.7-0.4,1.5-0.5,2.2-0.3c0.8,0.3,1.3,1.2,1,2.1c-0.1,0.3-0.2,0.5-0.4,0.7c-0.6,0.4-1.4,0.4-2,0
	c-0.6-0.4-1.3-0.4-1.9,0c-0.9,0.5-1.5,1.5-1.4,2.5c0,1.8,0,3.6,0,5.4c0,0.5,0,1.1,0,1.6c0,0.8,0.3,1.1,1.1,1.1c0.6,0,1.1,0,1.7,0
	C137.2,78.9,137.3,78.9,137.6,79z"/>
<path class="st0" d="M80,79.4c0,0.1,0,0.2,0,0.4c0,0.4-0.1,0.5-0.5,0.5c-0.6,0-1.2,0-1.8,0h-3.5h-1.1v-0.8l0.7,0
	c0.2,0,0.5,0,0.7-0.1c0.4,0,0.7-0.4,0.6-0.7c0,0,0,0,0-0.1c0-1.2,0-2.5,0-3.7v-5c0-0.7-0.4-1.4-1-1.7C74.1,68,74,68,73.9,67.9
	c-0.3-0.3-0.3-0.6,0.1-0.8c1.1-0.4,2.1-0.8,3.2-1.1c0.5-0.2,0.7,0,0.7,0.5c0,1.5,0,3,0,4.4c0,2.4,0,4.7,0,7.1c0,0.2,0,0.3,0,0.5
	c0,0.5,0.4,0.8,0.9,0.8C79.2,79.4,79.6,79.4,80,79.4z"/>
<path class="st0" d="M146.7,53.5v0.8H140v-0.7l1-0.1c0.8,0,1.1-0.3,1.1-1.1c0-1.9,0-3.8,0-5.7c0-0.9,0-1.8,0-2.8
	c0.1-0.8-0.4-1.5-1.1-1.9l-0.2-0.1c-0.2-0.1-0.4-0.2-0.4-0.5s0.3-0.3,0.5-0.4l3-1.1c0.5-0.2,0.7-0.1,0.7,0.5c0,0.8,0,1.7,0,2.5v6.6
	c0,0.8,0,1.6,0,2.5c0,0.1,0,0.2,0,0.4c0,0.7,0.3,0.9,1,1C145.9,53.5,146.3,53.5,146.7,53.5z"/>
<path class="st0" d="M67.8,28.8c0.1,0.6,0.1,1.2,0.1,1.8c0,0.5,0,1.1,0,1.8l0.6-0.3c1.2-0.7,2.2-0.1,2.2,1.2c0,0.6,0,1.2,0,1.8
	c0,0.2,0,0.4,0,0.6c0.2,0.2,0.5,0.1,0.5,0.4c-0.7,0.1-1.3,0.1-2,0v-0.1c0.5-0.1,0.6-0.5,0.6-1s0-1.1,0-1.6c0.1-0.5-0.3-1-0.8-1
	c-0.3,0-0.5,0.1-0.7,0.2c-0.3,0.1-0.4,0.4-0.4,0.7c0,0.7,0,1.3,0,2c0,0.5,0.3,0.6,0.6,0.7c-0.7,0.2-1.4,0.2-2.1,0
	c0.5-0.4,0.6-0.4,0.6-1.2c0-1.4,0-2.8,0-4.2c0-0.5,0-0.9-0.6-1.2L67.8,28.8z"/>
<path class="st0" d="M62.4,29.9h-1.3c-0.4,0-0.8,0.2-0.9,0.6c0,0.1-0.1,0.2-0.2,0.3c-0.2-0.5-0.2-1,0-1.5c0.5,0,0.9,0.1,1.4,0.1
	c1.1,0,2.2,0,3.3,0c0.4,0,0.8-0.1,1.3-0.1c0.1,0.5,0,1-0.1,1.4c-0.1-0.1-0.2-0.1-0.2-0.1c-0.3-0.7-0.3-0.7-1.1-0.8h-1.1
	c0,0.3-0.1,0.5-0.1,0.7c0,1.4,0,2.8,0,4.2c0,0.1,0,0.2,0,0.4c-0.1,0.4,0.2,0.7,0.6,0.8c0,0,0,0,0,0c0.1,0,0.1,0.1,0.2,0.2
	c-0.9,0.1-1.7,0.1-2.6,0.1V36c0.1-0.1,0.2-0.1,0.3-0.1c0.3,0,0.5-0.3,0.5-0.6c0-0.4,0-0.9,0-1.3c0-1.2,0-2.5,0-3.7
	C62.4,30.2,62.4,30,62.4,29.9z"/>
<path class="st0" d="M76.6,61.1c-0.9,0-1.6-0.7-1.6-1.6c0-0.9,0.7-1.6,1.6-1.6c0,0,0,0,0,0c0.8-0.1,1.6,0.6,1.6,1.4c0,0,0,0,0,0.1
	c0,0.9-0.6,1.6-1.5,1.6C76.6,61.1,76.6,61.1,76.6,61.1z"/>
<path class="st0" d="M143.3,35.1c-0.8,0-1.5-0.7-1.5-1.5c0-0.9,0.8-1.6,1.6-1.6c0.8,0,1.5,0.7,1.5,1.5
	C144.8,34.5,144.1,35.1,143.3,35.1z"/>
<path class="st0" d="M75.5,33.4l-2.6,0.1c-0.2,0.6,0,1.3,0.4,1.8c0.8,0.7,1.5,0.3,2.1-0.2c0,0.1,0.1,0.1,0.1,0.2
	c-0.4,0.7-1.2,1.2-2,1c-0.8-0.1-1.4-0.7-1.5-1.5c-0.2-0.8,0-1.6,0.4-2.2c0.5-0.8,1.6-1,2.4-0.6C75.4,32.2,75.6,32.8,75.5,33.4z
	 M72.8,33.1c0.6,0,1.1,0,1.5,0s0.4-0.2,0.3-0.5c-0.2-0.4-0.6-0.6-1-0.5c-0.1,0-0.2,0.1-0.3,0.2C73,32.6,72.9,32.8,72.8,33.1z"/>
<path class="st0" d="M89.5,13.7c0.1-2.2,0-4.4,0-6.6L99.7,7c0.1,1.1,0.1,2.2,0,3.2c0,1.1,0,2.1,0,3.3c1.1,0.1,2.2,0.1,3.2,0.1
	c1,0,2.1,0,3.2,0c0,0.2,0.1,0.5,0.1,0.7c0,3,0,6.1,0,9.1c0,0.1,0,0.2,0,0.3c0,0.5,0,0.5-0.5,0.5h-5.9c-0.1,1.1-0.1,2.2-0.1,3.3
	c0,1.1,0,2.1,0,3.2c-0.4,0.2-0.8,0.2-1.3,0.2c-1.6,0-3.2,0-4.9,0H90h-0.5c0-2.2,0-4.3-0.1-6.5c-2.2,0-4.3,0-6.5,0V13.8
	C85.2,13.7,87.3,13.8,89.5,13.7z M104.3,19.1c-0.9-1-1.9-2-2.9-3l-2.9,3l-3.8-3.8l-3.8,3.9l3.8,3.6l3.8-3.7l2.8,2.8L104.3,19.1z
	 M85.1,19.2c1,1,1.9,1.9,3,2.7c1-0.9,1.9-1.8,2.9-2.8c-1-1-1.9-2-3-3L85.1,19.2z M91.8,12.5l2.9,2.8c1-1,2-1.8,2.9-2.8
	c-0.9-1-1.9-2-2.9-2.9L91.8,12.5z M94.7,28.4c1.1-0.8,2-1.8,2.8-2.9l-2.7-2.6c-1,0.8-2,1.8-2.8,2.9L94.7,28.4z"/>
</svg>
